<svg width="20" height="20" viewBox="0 0 20 20" fill="none" xmlns="http://www.w3.org/2000/svg">
<path d="M7.8125 9.6875C8.06114 9.6875 8.2996 9.58873 8.47541 9.41291C8.65123 9.2371 8.75 8.99864 8.75 8.75C8.75 8.50136 8.65123 8.2629 8.47541 8.08709C8.2996 7.91127 8.06114 7.8125 7.8125 7.8125C7.56386 7.8125 7.3254 7.91127 7.14959 8.08709C6.97377 8.2629 6.875 8.50136 6.875 8.75C6.875 8.99864 6.97377 9.2371 7.14959 9.41291C7.3254 9.58873 7.56386 9.6875 7.8125 9.6875Z" fill="#08FFAE"/>
<path d="M7.67011 12.0838C7.61561 12.0218 7.54937 11.9712 7.4752 11.9349C7.40103 11.8986 7.3204 11.8774 7.23799 11.8725C7.15557 11.8675 7.07299 11.879 6.99503 11.9061C6.91706 11.9333 6.84524 11.9756 6.78373 12.0307C6.72222 12.0858 6.67223 12.1525 6.63664 12.227C6.60106 12.3015 6.58059 12.3823 6.57642 12.4648C6.57225 12.5472 6.58446 12.6297 6.61234 12.7074C6.64022 12.7851 6.68322 12.8565 6.73886 12.9175C7.14899 13.3767 7.65157 13.7439 8.21362 13.995C8.77567 14.2462 9.38449 14.3757 10.0001 14.375C10.6157 14.3757 11.2246 14.2462 11.7866 13.995C12.3487 13.7439 12.8512 13.3767 13.2614 12.9175C13.3701 12.7938 13.4256 12.6321 13.4158 12.4676C13.4059 12.3031 13.3315 12.1492 13.2088 12.0393C13.086 11.9294 12.9248 11.8724 12.7603 11.8808C12.5957 11.8891 12.4411 11.9621 12.3301 12.0838C12.0373 12.412 11.6782 12.6745 11.2766 12.854C10.875 13.0334 10.44 13.1258 10.0001 13.125C9.07511 13.125 8.24386 12.7238 7.67011 12.0838Z" fill="#08FFAE"/>
<path d="M13.125 8.75C13.125 8.99864 13.0262 9.2371 12.8504 9.41291C12.6746 9.58873 12.4361 9.6875 12.1875 9.6875C11.9389 9.6875 11.7004 9.58873 11.5246 9.41291C11.3488 9.2371 11.25 8.99864 11.25 8.75C11.25 8.50136 11.3488 8.2629 11.5246 8.08709C11.7004 7.91127 11.9389 7.8125 12.1875 7.8125C12.4361 7.8125 12.6746 7.91127 12.8504 8.08709C13.0262 8.2629 13.125 8.50136 13.125 8.75Z" fill="#08FFAE"/>
<path d="M17.5 10C17.5 9.01509 17.306 8.03982 16.9291 7.12987C16.5522 6.21993 15.9997 5.39314 15.3033 4.6967C14.6069 4.00026 13.7801 3.44781 12.8701 3.0709C11.9602 2.69399 10.9849 2.5 10 2.5C9.01509 2.5 8.03982 2.69399 7.12987 3.0709C6.21993 3.44781 5.39314 4.00026 4.6967 4.6967C4.00026 5.39314 3.44781 6.21993 3.0709 7.12987C2.69399 8.03982 2.5 9.01509 2.5 10C2.5 11.9891 3.29018 13.8968 4.6967 15.3033C6.10322 16.7098 8.01088 17.5 10 17.5C11.9891 17.5 13.8968 16.7098 15.3033 15.3033C16.7098 13.8968 17.5 11.9891 17.5 10ZM3.75 10C3.75 8.3424 4.40848 6.75269 5.58058 5.58058C6.75269 4.40848 8.3424 3.75 10 3.75C11.6576 3.75 13.2473 4.40848 14.4194 5.58058C15.5915 6.75269 16.25 8.3424 16.25 10C16.25 11.6576 15.5915 13.2473 14.4194 14.4194C13.2473 15.5915 11.6576 16.25 10 16.25C8.3424 16.25 6.75269 15.5915 5.58058 14.4194C4.40848 13.2473 3.75 11.6576 3.75 10Z" fill="#08FFAE"/>
</svg>
