<svg width="16" height="16" viewBox="0 0 16 16" fill="none" xmlns="http://www.w3.org/2000/svg">
<path d="M5.8125 7.6875C6.06114 7.6875 6.2996 7.58873 6.47541 7.41291C6.65123 7.2371 6.75 6.99864 6.75 6.75C6.75 6.50136 6.65123 6.2629 6.47541 6.08709C6.2996 5.91127 6.06114 5.8125 5.8125 5.8125C5.56386 5.8125 5.3254 5.91127 5.14959 6.08709C4.97377 6.2629 4.875 6.50136 4.875 6.75C4.875 6.99864 4.97377 7.2371 5.14959 7.41291C5.3254 7.58873 5.56386 7.6875 5.8125 7.6875Z" fill="#08FFAE"/>
<path d="M5.67011 10.0838C5.61561 10.0218 5.54937 9.97115 5.4752 9.93488C5.40103 9.89861 5.3204 9.87739 5.23799 9.87246C5.15557 9.86752 5.07299 9.87896 4.99503 9.90612C4.91706 9.93328 4.84524 9.97562 4.78373 10.0307C4.72222 10.0858 4.67223 10.1525 4.63664 10.227C4.60106 10.3015 4.58059 10.3823 4.57642 10.4648C4.57225 10.5472 4.58446 10.6297 4.61234 10.7074C4.64022 10.7851 4.68322 10.8565 4.73886 10.9175C5.14899 11.3767 5.65157 11.7439 6.21362 11.995C6.77567 12.2462 7.38449 12.3757 8.00011 12.375C8.61574 12.3757 9.22456 12.2462 9.78661 11.995C10.3487 11.7439 10.8512 11.3767 11.2614 10.9175C11.3701 10.7938 11.4256 10.6321 11.4158 10.4676C11.4059 10.3031 11.3315 10.1492 11.2088 10.0393C11.086 9.92943 10.9248 9.87245 10.7603 9.88077C10.5957 9.8891 10.4411 9.96206 10.3301 10.0838C10.0373 10.412 9.67824 10.6745 9.27664 10.854C8.87504 11.0334 8.43999 11.1258 8.00011 11.125C7.07511 11.125 6.24386 10.7238 5.67011 10.0838Z" fill="#08FFAE"/>
<path d="M11.125 6.75C11.125 6.99864 11.0262 7.2371 10.8504 7.41291C10.6746 7.58873 10.4361 7.6875 10.1875 7.6875C9.93886 7.6875 9.7004 7.58873 9.52459 7.41291C9.34877 7.2371 9.25 6.99864 9.25 6.75C9.25 6.50136 9.34877 6.2629 9.52459 6.08709C9.7004 5.91127 9.93886 5.8125 10.1875 5.8125C10.4361 5.8125 10.6746 5.91127 10.8504 6.08709C11.0262 6.2629 11.125 6.50136 11.125 6.75Z" fill="#08FFAE"/>
<path d="M15.5 8C15.5 7.01509 15.306 6.03982 14.9291 5.12987C14.5522 4.21993 13.9997 3.39314 13.3033 2.6967C12.6069 2.00026 11.7801 1.44781 10.8701 1.0709C9.96018 0.693993 8.98491 0.5 8 0.5C7.01509 0.5 6.03982 0.693993 5.12987 1.0709C4.21993 1.44781 3.39314 2.00026 2.6967 2.6967C2.00026 3.39314 1.44781 4.21993 1.0709 5.12987C0.693993 6.03982 0.5 7.01509 0.5 8C0.5 9.98912 1.29018 11.8968 2.6967 13.3033C4.10322 14.7098 6.01088 15.5 8 15.5C9.98912 15.5 11.8968 14.7098 13.3033 13.3033C14.7098 11.8968 15.5 9.98912 15.5 8ZM1.75 8C1.75 6.3424 2.40848 4.75269 3.58058 3.58058C4.75269 2.40848 6.3424 1.75 8 1.75C9.6576 1.75 11.2473 2.40848 12.4194 3.58058C13.5915 4.75269 14.25 6.3424 14.25 8C14.25 9.6576 13.5915 11.2473 12.4194 12.4194C11.2473 13.5915 9.6576 14.25 8 14.25C6.3424 14.25 4.75269 13.5915 3.58058 12.4194C2.40848 11.2473 1.75 9.6576 1.75 8Z" fill="#08FFAE"/>
</svg>
