<svg width="18" height="18" viewBox="0 0 18 18" fill="none" xmlns="http://www.w3.org/2000/svg">
<path d="M1.70712 0.980047L16.7571 8.17862C16.909 8.25134 17.0373 8.36554 17.1271 8.50805C17.2169 8.65055 17.2645 8.81555 17.2645 8.98398C17.2645 9.15241 17.2169 9.3174 17.1271 9.45991C17.0373 9.60241 16.909 9.71662 16.7571 9.78933L1.70712 16.9879C1.55278 17.0619 1.38042 17.0899 1.21057 17.0687C1.04073 17.0475 0.880562 16.978 0.749145 16.8683C0.617729 16.7586 0.520603 16.6135 0.469336 16.4502C0.41807 16.2869 0.414822 16.1123 0.459981 15.9472L1.9657 10.4272C1.98413 10.3595 2.02206 10.2988 2.07478 10.2526C2.12749 10.2063 2.19265 10.1766 2.26212 10.1672L9.55498 9.17648C9.58539 9.17221 9.61418 9.16017 9.63858 9.14153C9.66298 9.12289 9.68216 9.09827 9.69427 9.07005L9.70712 9.02505C9.71276 8.98517 9.70475 8.94456 9.68439 8.90981C9.66403 8.87505 9.63252 8.84821 9.59498 8.83362L9.5557 8.82291L2.26998 7.83291C2.20063 7.82332 2.13563 7.79357 2.08306 7.74734C2.03048 7.70111 1.99265 7.64046 1.97427 7.57291L0.459981 2.02076C0.414822 1.85566 0.41807 1.68107 0.469336 1.51776C0.520603 1.35446 0.617729 1.20933 0.749145 1.09967C0.880562 0.990002 1.04073 0.920422 1.21057 0.899215C1.38042 0.878007 1.55278 0.906065 1.70712 0.980047Z" fill="#E5FFF6"/>
</svg>
