<svg width="18" height="16" viewBox="0 0 18 16" fill="none" xmlns="http://www.w3.org/2000/svg">
<path d="M14.6249 0.917459C14.9806 0.917459 15.3327 0.987513 15.6613 1.12362C15.9899 1.25973 16.2885 1.45922 16.54 1.71071C16.7915 1.9622 16.991 2.26077 17.1271 2.58936C17.2632 2.91795 17.3332 3.27013 17.3332 3.62579V12.3783C17.3332 12.734 17.2632 13.0861 17.1271 13.4147C16.991 13.7433 16.7915 14.0419 16.54 14.2934C16.2885 14.5449 15.9899 14.7444 15.6613 14.8805C15.3327 15.0166 14.9806 15.0866 14.6249 15.0866H3.3749C2.6566 15.0866 1.96773 14.8013 1.45982 14.2934C0.951906 13.7855 0.666565 13.0966 0.666565 12.3783V3.62496C0.666565 2.90666 0.951906 2.21779 1.45982 1.70988C1.96773 1.20197 2.6566 0.916626 3.3749 0.916626L14.6249 0.917459ZM14.6249 2.16746H3.3749C2.98812 2.16746 2.61719 2.3211 2.3437 2.5946C2.07021 2.86809 1.91656 3.23902 1.91656 3.62579V12.3783C1.91656 13.1833 2.5699 13.8366 3.3749 13.8366H14.6249C15.0117 13.8366 15.3826 13.683 15.6561 13.4095C15.9296 13.136 16.0832 12.7651 16.0832 12.3783V3.62496C16.0832 3.23819 15.9296 2.86725 15.6561 2.59376C15.3826 2.32027 15.0117 2.16746 14.6249 2.16746ZM5.67907 5.39329C6.17573 5.39329 6.52823 5.46163 6.93073 5.65496C6.9924 5.68456 7.04763 5.72602 7.09328 5.77697C7.13892 5.82792 7.17408 5.88735 7.19675 5.95189C7.21943 6.01643 7.22917 6.0848 7.22542 6.1531C7.22167 6.2214 7.2045 6.28829 7.1749 6.34996C7.1453 6.41163 7.10384 6.46686 7.05289 6.5125C7.00194 6.55815 6.9425 6.59331 6.87797 6.61598C6.81343 6.63865 6.74506 6.64839 6.67676 6.64464C6.60846 6.64089 6.54156 6.62373 6.4799 6.59413C6.2299 6.47413 6.0299 6.43579 5.67907 6.43579C4.95657 6.43579 4.42573 7.09913 4.42573 7.99579C4.42573 8.89329 4.9574 9.55913 5.67907 9.55913C6.03573 9.55913 6.33823 9.40913 6.49573 9.14163L6.4999 9.12913V8.51746H6.18656C6.06187 8.51745 5.94131 8.4727 5.84681 8.39135C5.7523 8.31 5.69012 8.19744 5.67156 8.07413L5.66656 7.99746C5.66656 7.73579 5.85907 7.51913 6.11073 7.48163L6.1874 7.47663H7.0224C7.28407 7.47663 7.4999 7.66829 7.5374 7.91996L7.54323 7.99746L7.54156 9.28663L7.53657 9.33329L7.51906 9.40829L7.5024 9.45413C7.18823 10.1958 6.46823 10.6008 5.67907 10.6008C4.32407 10.6008 3.38407 9.42329 3.38407 7.99579C3.38407 6.56829 4.32323 5.39329 5.67907 5.39329ZM9.52407 5.49496C9.78573 5.49496 10.0024 5.68829 10.0391 5.93913L10.0449 6.01579V9.98496C10.0446 10.1163 9.99479 10.2426 9.90534 10.3387C9.8159 10.4348 9.69345 10.4936 9.56251 10.5033C9.43157 10.513 9.30181 10.4729 9.19918 10.391C9.09656 10.3091 9.02866 10.1915 9.00906 10.0616L9.00323 9.98496V6.01579C9.00323 5.72829 9.23656 5.49496 9.52407 5.49496ZM12.0207 5.49496L13.6849 5.50079C13.8169 5.50045 13.9441 5.55024 14.0408 5.64011C14.1375 5.72997 14.1965 5.8532 14.2058 5.98487C14.2151 6.11655 14.1741 6.24685 14.091 6.34943C14.0079 6.45201 13.889 6.51922 13.7582 6.53746L13.6816 6.54246L12.5391 6.53829V7.99996H13.4749C13.7366 7.99996 13.9532 8.19329 13.9899 8.44496L13.9957 8.52163C13.9957 8.64645 13.9508 8.7671 13.8693 8.86163C13.7878 8.95615 13.675 9.01825 13.5516 9.03663L13.4749 9.04246L12.5391 9.04163V9.97079C12.5393 10.0956 12.4946 10.2164 12.4132 10.3111C12.3319 10.4057 12.2192 10.4681 12.0957 10.4866L12.0191 10.4916C11.8942 10.4918 11.7735 10.4472 11.6788 10.3658C11.5841 10.2844 11.5218 10.1717 11.5032 10.0483L11.4982 9.97079V6.01413C11.4987 5.88947 11.5439 5.76911 11.6255 5.67492C11.7072 5.58072 11.8199 5.51894 11.9432 5.50079L12.0207 5.49496Z" fill="#08FFAE"/>
</svg>
