<svg width="18" height="18" viewBox="0 0 18 18" fill="white" xmlns="http://www.w3.org/2000/svg">
<path d="M17.25 9.73438H0.75C0.335999 9.73438 0 9.39838 0 8.98438C0 8.57037 0.335999 8.23438 0.75 8.23438H17.25C17.664 8.23438 18 8.57037 18 8.98438C18 9.39838 17.664 9.73438 17.25 9.73438Z" fill="white"/>
<path d="M17.25 3.98438H0.75C0.335999 3.98438 0 3.64838 0 3.23438C0 2.82037 0.335999 2.48438 0.75 2.48438H17.25C17.664 2.48438 18 2.82037 18 3.23438C18 3.64838 17.664 3.98438 17.25 3.98438Z" fill="white"/>
<path d="M17.25 15.4844H0.75C0.335999 15.4844 0 15.1484 0 14.7344C0 14.3204 0.335999 13.9844 0.75 13.9844H17.25C17.664 13.9844 18 14.3204 18 14.7344C18 15.1484 17.664 15.4844 17.25 15.4844Z" fill="white"/>
</svg>
