<svg width="25" height="25" viewBox="0 0 10 11" fill="none" xmlns="http://www.w3.org/2000/svg">
<path d="M7.036 9.28438V8.49167C7.036 7.61607 6.32619 6.90625 5.45059 6.90625H2.27975C1.40415 6.90625 0.694336 7.61607 0.694336 8.49167V9.28438" stroke="#27AE60" stroke-width="0.648396" stroke-linecap="round" stroke-linejoin="round"/>
<path fill-rule="evenodd" clip-rule="evenodd" d="M3.8652 5.32086C4.7408 5.32086 5.45062 4.61104 5.45062 3.73544C5.45062 2.85984 4.7408 2.15002 3.8652 2.15002C2.9896 2.15002 2.27979 2.85984 2.27979 3.73544C2.27979 4.61104 2.9896 5.32086 3.8652 5.32086Z" stroke="#27AE60" stroke-width="0.648396" stroke-linecap="round" stroke-linejoin="round"/>
<path d="M9.41428 9.28436V8.49165C9.41374 7.76915 8.92478 7.13839 8.22522 6.95776" stroke="#27AE60" stroke-width="0.648396" stroke-linecap="round" stroke-linejoin="round"/>
<path d="M6.63977 2.20154C7.34128 2.38115 7.83194 3.01327 7.83194 3.73741C7.83194 4.46155 7.34128 5.09367 6.63977 5.27328" stroke="#27AE60" stroke-width="0.648396" stroke-linecap="round" stroke-linejoin="round"/>
</svg>
