<svg width="20" height="20" viewBox="0 0 11 11" fill="none" xmlns="http://www.w3.org/2000/svg">
<path d="M8.10743 1.17954C8.38221 1.17928 8.65427 1.24048 8.90767 1.35954C9.16106 1.4786 9.39069 1.65313 9.58309 1.8729C9.97952 2.32374 10.2017 2.93117 10.2017 3.56401C10.2017 4.19684 9.97952 4.80428 9.58309 5.25512L5.67315 9.69006L1.76321 5.25512C1.36678 4.80428 1.14456 4.19684 1.14456 3.56401C1.14456 2.93117 1.36678 2.32374 1.76321 1.8729C1.95572 1.65328 2.18537 1.47885 2.43874 1.35977C2.6921 1.24069 2.96411 1.17936 3.23887 1.17936C3.51364 1.17936 3.78564 1.24069 4.03901 1.35977C4.29238 1.47885 4.52202 1.65328 4.71454 1.8729L5.67315 2.97212L6.62799 1.88135C6.81981 1.65896 7.04968 1.48219 7.30388 1.36161C7.55808 1.24102 7.83138 1.1791 8.10743 1.17954ZM8.10743 0.333986C7.73214 0.333629 7.36057 0.417212 7.0145 0.579832C6.66843 0.742452 6.35482 0.980836 6.09207 1.28101L5.67315 1.75452L5.25423 1.28101C4.99116 0.981378 4.67747 0.743407 4.33146 0.580968C3.98545 0.418529 3.61404 0.334871 3.23887 0.334871C2.86371 0.334871 2.49229 0.418529 2.14628 0.580968C1.80027 0.743407 1.48659 0.981378 1.22352 1.28101C0.688309 1.89134 0.388428 2.71268 0.388428 3.56824C0.388428 4.42379 0.688309 5.24513 1.22352 5.85546L5.67315 10.9034L10.1228 5.85546C10.658 5.24513 10.9579 4.42379 10.9579 3.56824C10.9579 2.71268 10.658 1.89134 10.1228 1.28101C9.85978 0.981218 9.54612 0.743083 9.20011 0.580491C8.8541 0.417898 8.48265 0.334101 8.10743 0.333986Z" fill="#333333"/>
</svg>
