<svg width="20" height="20" viewBox="0 0 20 20" fill="none" xmlns="http://www.w3.org/2000/svg">
<path d="M2.70712 1.98005L17.7571 9.17862C17.909 9.25134 18.0373 9.36554 18.1271 9.50805C18.2169 9.65055 18.2645 9.81555 18.2645 9.98398C18.2645 10.1524 18.2169 10.3174 18.1271 10.4599C18.0373 10.6024 17.909 10.7166 17.7571 10.7893L2.70712 17.9879C2.55278 18.0619 2.38042 18.0899 2.21057 18.0687C2.04073 18.0475 1.88056 17.978 1.74915 17.8683C1.61773 17.7586 1.5206 17.6135 1.46934 17.4502C1.41807 17.2869 1.41482 17.1123 1.45998 16.9472L2.9657 11.4272C2.98413 11.3595 3.02206 11.2988 3.07478 11.2526C3.12749 11.2063 3.19265 11.1766 3.26212 11.1672L10.555 10.1765C10.5854 10.1722 10.6142 10.1602 10.6386 10.1415C10.663 10.1229 10.6822 10.0983 10.6943 10.07L10.7071 10.025C10.7128 9.98517 10.7047 9.94456 10.6844 9.90981C10.664 9.87505 10.6325 9.84821 10.595 9.83362L10.5557 9.82291L3.26998 8.83291C3.20063 8.82332 3.13563 8.79357 3.08306 8.74734C3.03048 8.70111 2.99265 8.64046 2.97427 8.57291L1.45998 3.02076C1.41482 2.85566 1.41807 2.68107 1.46934 2.51776C1.5206 2.35446 1.61773 2.20933 1.74915 2.09967C1.88056 1.99 2.04073 1.92042 2.21057 1.89921C2.38042 1.87801 2.55278 1.90607 2.70712 1.98005Z" fill="#E5FFF6"/>
</svg>
