<svg width="28" height="22" viewBox="0 0 28 22" fill="none" xmlns="http://www.w3.org/2000/svg">
<path fill-rule="evenodd" clip-rule="evenodd" d="M3.54946 11.9993C3.42953 12.1839 3.33339 12.4479 3.33339 12.8551V15.741C3.33339 16.684 3.70799 17.5884 4.37478 18.2552C4.75334 18.6337 5.20846 18.9181 5.70376 19.0932V11.065C5.09278 11.1377 4.56891 11.2729 4.17051 11.4772C3.86906 11.6318 3.67324 11.8087 3.54946 11.9993ZM3.08885 9.36803C4.22927 8.78319 5.64113 8.62988 6.88894 8.62988C7.5435 8.62988 8.07413 9.16051 8.07413 9.81507V20.4817C8.07413 21.1363 7.5435 21.6669 6.88894 21.6669C5.31729 21.6669 3.81 21.0426 2.69868 19.9313C1.58735 18.8199 0.963013 17.3126 0.963013 15.741V12.8551C0.963013 12.0456 1.16316 11.3214 1.56175 10.7079C1.95649 10.1003 2.50141 9.66929 3.08885 9.36803Z" fill="#1D1C1D"/>
<path fill-rule="evenodd" clip-rule="evenodd" d="M19.9257 9.81507C19.9257 9.16051 20.4563 8.62988 21.1108 8.62988C22.3587 8.62988 23.7705 8.78319 24.9109 9.36803C25.4984 9.66929 26.0433 10.1003 26.438 10.7079C26.8366 11.3214 27.0368 12.0456 27.0368 12.8551V15.741C27.0368 17.3126 26.4124 18.8199 25.3011 19.9313C24.1898 21.0426 22.6825 21.6669 21.1108 21.6669C20.4563 21.6669 19.9257 21.1363 19.9257 20.4817V9.81507ZM22.296 11.065V19.0932C22.7913 18.9181 23.2464 18.6337 23.625 18.2552C24.2918 17.5884 24.6664 16.684 24.6664 15.741V12.8551C24.6664 12.4479 24.5703 12.1839 24.4503 11.9993C24.3265 11.8087 24.1307 11.6318 23.8293 11.4772C23.4309 11.2729 22.907 11.1377 22.296 11.065Z" fill="#1D1C1D"/>
<path fill-rule="evenodd" clip-rule="evenodd" d="M13.9998 2.70387C12.4281 2.70387 10.9209 3.3282 9.80953 4.43953C8.6982 5.55086 8.07386 7.05814 8.07386 8.62979V20.4816C8.07386 21.1362 7.54324 21.6668 6.88868 21.6668C6.23412 21.6668 5.70349 21.1362 5.70349 20.4816V8.62979C5.70349 6.42948 6.57756 4.31928 8.13342 2.76342C9.68928 1.20757 11.7995 0.333496 13.9998 0.333496C16.2001 0.333496 18.3103 1.20757 19.8662 2.76342C21.422 4.31928 22.2961 6.42948 22.2961 8.62979V20.4816C22.2961 21.1362 21.7655 21.6668 21.1109 21.6668C20.4563 21.6668 19.9257 21.1362 19.9257 20.4816V8.62979C19.9257 7.05814 19.3014 5.55086 18.1901 4.43953C17.0787 3.3282 15.5714 2.70387 13.9998 2.70387Z" fill="#1D1C1D"/>
</svg>
