<svg
            width="14"
            height="14"
            viewBox="0 0 14 14"
            fill="none"
            xmlns="http://www.w3.org/2000/svg"
          >
            <path
              fill-rule="evenodd"
              clip-rule="evenodd"
              d="M2.37988 2.33317C2.37988 2.03671 2.62021 1.79639 2.91666 1.79639H7.58333C9.16845 1.79639 10.4534 3.08138 10.4534 4.6665C10.4534 6.25162 9.16845 7.53661 7.58333 7.53661H2.91666C2.62021 7.53661 2.37988 7.29629 2.37988 6.99983V2.33317ZM3.45344 2.86995V6.46305H7.58333C8.57554 6.46305 9.37988 5.65871 9.37988 4.6665C9.37988 3.67429 8.57554 2.86995 7.58333 2.86995H3.45344Z"
              fill="#616061"
            />
            <path
              fill-rule="evenodd"
              clip-rule="evenodd"
              d="M2.37988 7.00016C2.37988 6.7037 2.62021 6.46338 2.91666 6.46338H8.16666C9.75178 6.46338 11.0368 7.74837 11.0368 9.33349C11.0368 10.9186 9.75178 12.2036 8.16666 12.2036H2.91666C2.62021 12.2036 2.37988 11.9633 2.37988 11.6668V7.00016ZM3.45344 7.53694V11.13H8.16666C9.15887 11.13 9.96322 10.3257 9.96322 9.33349C9.96322 8.34128 9.15887 7.53694 8.16666 7.53694H3.45344Z"
              fill="#616061"
            />
          </svg>
