<svg width="20" height="20" viewBox="0 0 20 20" fill="none" xmlns="http://www.w3.org/2000/svg">
<path d="M15.6249 2.91746C15.9806 2.91746 16.3327 2.98751 16.6613 3.12362C16.9899 3.25973 17.2885 3.45922 17.54 3.71071C17.7915 3.9622 17.991 4.26077 18.1271 4.58936C18.2632 4.91795 18.3332 5.27013 18.3332 5.62579V14.3783C18.3332 14.734 18.2632 15.0861 18.1271 15.4147C17.991 15.7433 17.7915 16.0419 17.54 16.2934C17.2885 16.5449 16.9899 16.7444 16.6613 16.8805C16.3327 17.0166 15.9806 17.0866 15.6249 17.0866H4.3749C3.6566 17.0866 2.96773 16.8013 2.45982 16.2934C1.95191 15.7855 1.66656 15.0966 1.66656 14.3783V5.62496C1.66656 4.90666 1.95191 4.21779 2.45982 3.70988C2.96773 3.20197 3.6566 2.91663 4.3749 2.91663L15.6249 2.91746ZM15.6249 4.16746H4.3749C3.98812 4.16746 3.61719 4.3211 3.3437 4.5946C3.07021 4.86809 2.91656 5.23902 2.91656 5.62579V14.3783C2.91656 15.1833 3.5699 15.8366 4.3749 15.8366H15.6249C16.0117 15.8366 16.3826 15.683 16.6561 15.4095C16.9296 15.136 17.0832 14.7651 17.0832 14.3783V5.62496C17.0832 5.23819 16.9296 4.86725 16.6561 4.59376C16.3826 4.32027 16.0117 4.16746 15.6249 4.16746ZM6.67907 7.39329C7.17573 7.39329 7.52823 7.46163 7.93073 7.65496C7.9924 7.68456 8.04763 7.72602 8.09328 7.77697C8.13892 7.82792 8.17408 7.88735 8.19675 7.95189C8.21943 8.01643 8.22917 8.0848 8.22542 8.1531C8.22167 8.2214 8.2045 8.28829 8.1749 8.34996C8.1453 8.41163 8.10384 8.46686 8.05289 8.5125C8.00194 8.55815 7.9425 8.59331 7.87797 8.61598C7.81343 8.63865 7.74506 8.64839 7.67676 8.64464C7.60846 8.64089 7.54156 8.62373 7.4799 8.59413C7.2299 8.47413 7.0299 8.43579 6.67907 8.43579C5.95657 8.43579 5.42573 9.09913 5.42573 9.99579C5.42573 10.8933 5.9574 11.5591 6.67907 11.5591C7.03573 11.5591 7.33823 11.4091 7.49573 11.1416L7.4999 11.1291V10.5175H7.18656C7.06187 10.5175 6.94131 10.4727 6.84681 10.3913C6.7523 10.31 6.69012 10.1974 6.67156 10.0741L6.66656 9.99746C6.66656 9.73579 6.85907 9.51913 7.11073 9.48163L7.1874 9.47663H8.0224C8.28407 9.47663 8.4999 9.66829 8.5374 9.91996L8.54323 9.99746L8.54156 11.2866L8.53657 11.3333L8.51906 11.4083L8.5024 11.4541C8.18823 12.1958 7.46823 12.6008 6.67907 12.6008C5.32407 12.6008 4.38407 11.4233 4.38407 9.99579C4.38407 8.56829 5.32323 7.39329 6.67907 7.39329ZM10.5241 7.49496C10.7857 7.49496 11.0024 7.68829 11.0391 7.93913L11.0449 8.01579V11.985C11.0446 12.1163 10.9948 12.2426 10.9053 12.3387C10.8159 12.4348 10.6934 12.4936 10.5625 12.5033C10.4316 12.513 10.3018 12.4729 10.1992 12.391C10.0966 12.3091 10.0287 12.1915 10.0091 12.0616L10.0032 11.985V8.01579C10.0032 7.72829 10.2366 7.49496 10.5241 7.49496ZM13.0207 7.49496L14.6849 7.50079C14.8169 7.50045 14.9441 7.55024 15.0408 7.64011C15.1375 7.72997 15.1965 7.8532 15.2058 7.98487C15.2151 8.11655 15.1741 8.24685 15.091 8.34943C15.0079 8.45201 14.889 8.51922 14.7582 8.53746L14.6816 8.54246L13.5391 8.53829V9.99996H14.4749C14.7366 9.99996 14.9532 10.1933 14.9899 10.445L14.9957 10.5216C14.9957 10.6464 14.9508 10.7671 14.8693 10.8616C14.7878 10.9562 14.675 11.0183 14.5516 11.0366L14.4749 11.0425L13.5391 11.0416V11.9708C13.5393 12.0956 13.4946 12.2164 13.4132 12.3111C13.3319 12.4057 13.2192 12.4681 13.0957 12.4866L13.0191 12.4916C12.8942 12.4918 12.7735 12.4472 12.6788 12.3658C12.5841 12.2844 12.5218 12.1717 12.5032 12.0483L12.4982 11.9708V8.01413C12.4987 7.88947 12.5439 7.76911 12.6255 7.67492C12.7072 7.58072 12.8199 7.51894 12.9432 7.50079L13.0207 7.49496Z" fill="#08FFAE"/>
</svg>
