<svg width="14" height="14" viewBox="0 0 14 14" fill="none" xmlns="http://www.w3.org/2000/svg">
<path d="M1.75 3.5H2.91667H12.25" stroke="#1D1C1D" stroke-width="1.22693" stroke-linecap="round" stroke-linejoin="round"/>
<path d="M11.6966 3.49986C11.6966 3.16105 11.422 2.8864 11.0832 2.8864C10.7444 2.8864 10.4697 3.16105 10.4697 3.49986H11.6966ZM3.52997 3.49986C3.52997 3.16105 3.25531 2.8864 2.9165 2.8864C2.5777 2.8864 2.30304 3.16105 2.30304 3.49986H3.52997ZM4.05312 3.49984C4.05312 3.83864 4.32777 4.1133 4.66658 4.1133C5.00539 4.1133 5.28004 3.83864 5.28004 3.49984H4.05312ZM8.71979 3.49984C8.71979 3.83864 8.99444 4.1133 9.33325 4.1133C9.67205 4.1133 9.94671 3.83864 9.94671 3.49984H8.71979ZM10.4697 3.49986V11.6665H11.6966V3.49986H10.4697ZM10.4697 11.6665C10.4697 11.972 10.222 12.2197 9.9165 12.2197V13.4467C10.8996 13.4467 11.6966 12.6497 11.6966 11.6665H10.4697ZM9.9165 12.2197H4.08317V13.4467H9.9165V12.2197ZM4.08317 12.2197C3.77764 12.2197 3.52997 11.972 3.52997 11.6665H2.30304C2.30304 12.6497 3.10003 13.4467 4.08317 13.4467V12.2197ZM3.52997 11.6665V3.49986H2.30304V11.6665H3.52997ZM5.28004 3.49984V2.33317H4.05312V3.49984H5.28004ZM5.28004 2.33317C5.28004 2.02764 5.52772 1.77997 5.83325 1.77997V0.553041C4.85011 0.553041 4.05312 1.35003 4.05312 2.33317H5.28004ZM5.83325 1.77997H8.16658V0.553041H5.83325V1.77997ZM8.16658 1.77997C8.47211 1.77997 8.71979 2.02764 8.71979 2.33317H9.94671C9.94671 1.35003 9.14972 0.553041 8.16658 0.553041V1.77997ZM8.71979 2.33317V3.49984H9.94671V2.33317H8.71979Z" fill="#1D1C1D"/>
<path d="M5.83325 6.4165V9.9165" stroke="#1D1C1D" stroke-width="1.22693" stroke-linecap="round" stroke-linejoin="round"/>
<path d="M8.1665 6.4165V9.9165" stroke="#1D1C1D" stroke-width="1.22693" stroke-linecap="round" stroke-linejoin="round"/>
</svg>
