   <svg
            width="24"
            height="24"
            viewBox="0 0 24 24"
            fill="none"
            xmlns="http://www.w3.org/2000/svg"
          >
            <path
              fill-rule="evenodd"
              clip-rule="evenodd"
              d="M12.7768 5.40774C12.9331 5.47557 13.026 5.63832 13.0048 5.80737L12.4347 10.3682H17.6162C17.7651 10.3682 17.9006 10.4543 17.9637 10.5892C18.0269 10.724 18.0064 10.8833 17.911 10.9976L11.6708 18.4859C11.5617 18.6168 11.3794 18.6601 11.2232 18.5923C11.0669 18.5244 10.974 18.3617 10.9952 18.1926L11.5653 13.6318H6.38378C6.23487 13.6318 6.0994 13.5457 6.03624 13.4108C5.97308 13.276 5.99362 13.1168 6.08896 13.0024L12.3292 5.51409C12.4383 5.38321 12.6206 5.3399 12.7768 5.40774ZM7.20315 12.8643H12C12.1101 12.8643 12.2148 12.9115 12.2877 12.9941C12.3605 13.0766 12.3945 13.1864 12.3808 13.2957L11.9191 16.989L16.7968 11.1357H12C11.8899 11.1357 11.7851 11.0885 11.7123 11.0059C11.6394 10.9234 11.6055 10.8136 11.6192 10.7044L12.0808 7.01105L7.20315 12.8643Z"
              fill="#616061"
            />
          </svg>