<svg width="18" height="19" viewBox="0 0 18 19" fill="none" xmlns="http://www.w3.org/2000/svg">
<path d="M10.6364 16.0909L7.36364 13.6364V10.8436L3 5.93455V4.63636C3 4.20237 3.1724 3.78616 3.47928 3.47928C3.78616 3.1724 4.20237 3 4.63636 3H13.3636C13.7976 3 14.2138 3.1724 14.5207 3.47928C14.8276 3.78616 15 4.20237 15 4.63636V5.93455L10.6364 10.8436V16.0909ZM8.45455 13.0909L9.54545 13.9091V10.4291L13.9091 5.52V4.63636C13.9091 4.4917 13.8516 4.35296 13.7493 4.25067C13.647 4.14838 13.5083 4.09091 13.3636 4.09091H4.63636C4.4917 4.09091 4.35296 4.14838 4.25067 4.25067C4.14838 4.35296 4.09091 4.4917 4.09091 4.63636V5.52L8.45455 10.4291V13.0909Z" fill="#1D1C1D"/>
</svg>
