<svg width="92" height="24" viewBox="0 0 92 24" fill="none" xmlns="http://www.w3.org/2000/svg">
<rect x="2.73499" y="0.571289" width="8.20723" height="8.72703" rx="1.0991" fill="#00B87C"/>
<rect y="10.5454" width="8.20723" height="8.72703" rx="1.0991" fill="#FEA162"/>
<rect x="12.1157" y="4.72778" width="8.20723" height="8.72703" rx="1.0991" fill="#1A61DB"/>
<rect x="9.3797" y="14.7019" width="8.20723" height="8.72703" rx="1.0991" fill="#DC1AA3"/>
<path d="M41.9729 6.59C41.9729 6.74333 41.9463 6.9 41.8929 7.06C41.8463 7.21333 41.7763 7.35667 41.6829 7.49L34.5229 17.65H41.7729V20H30.6729V18.83C30.6729 18.69 30.6963 18.5533 30.7429 18.42C30.7896 18.28 30.8563 18.1533 30.9429 18.04L38.1229 7.84H31.1829V5.49H41.9729V6.59ZM54.6775 17.6C55.1641 17.6 55.6008 17.52 55.9875 17.36C56.3741 17.1933 56.7008 16.96 56.9675 16.66C57.2341 16.36 57.4375 15.9967 57.5775 15.57C57.7175 15.1433 57.7875 14.6633 57.7875 14.13V5.49H60.7875V14.13C60.7875 15.01 60.6441 15.82 60.3575 16.56C60.0775 17.2933 59.6741 17.9267 59.1475 18.46C58.6208 18.9933 57.9808 19.41 57.2275 19.71C56.4741 20.01 55.6241 20.16 54.6775 20.16C53.7308 20.16 52.8775 20.01 52.1175 19.71C51.3641 19.41 50.7241 18.9933 50.1975 18.46C49.6708 17.9267 49.2641 17.2933 48.9775 16.56C48.6975 15.82 48.5575 15.01 48.5575 14.13V5.49H51.5575V14.13C51.5575 14.6633 51.6275 15.1433 51.7675 15.57C51.9075 15.9967 52.1108 16.36 52.3775 16.66C52.6441 16.96 52.9708 17.1933 53.3575 17.36C53.7441 17.52 54.1841 17.6 54.6775 17.6ZM72.9259 12.36C73.4126 12.36 73.8326 12.3 74.1859 12.18C74.5392 12.0533 74.8292 11.8833 75.0559 11.67C75.2826 11.45 75.4492 11.1933 75.5559 10.9C75.6626 10.6067 75.7159 10.2867 75.7159 9.94C75.7159 9.25333 75.4859 8.72 75.0259 8.34C74.5726 7.96 73.8792 7.77 72.9459 7.77H71.3859V12.36H72.9259ZM79.9559 20H77.2459C76.7392 20 76.3726 19.8067 76.1459 19.42L73.3859 14.97C73.2726 14.7967 73.1459 14.67 73.0059 14.59C72.8726 14.51 72.6726 14.47 72.4059 14.47H71.3859V20H68.3859V5.49H72.9459C73.9592 5.49 74.8259 5.59667 75.5459 5.81C76.2659 6.01667 76.8559 6.30667 77.3159 6.68C77.7759 7.05333 78.1126 7.5 78.3259 8.02C78.5392 8.53333 78.6459 9.1 78.6459 9.72C78.6459 10.2 78.5759 10.6567 78.4359 11.09C78.3026 11.5167 78.1059 11.9067 77.8459 12.26C77.5859 12.6133 77.2659 12.9267 76.8859 13.2C76.5059 13.4733 76.0726 13.6933 75.5859 13.86C75.7792 13.9667 75.9592 14.0967 76.1259 14.25C76.2926 14.3967 76.4426 14.5733 76.5759 14.78L79.9559 20ZM89.1403 20H86.1203V5.49H89.1403V20Z" fill="black"/>
</svg>
