<svg id="SvgjsSvg1001" width="288" height="288" xmlns="http://www.w3.org/2000/svg" version="1.1" xmlns:xlink="http://www.w3.org/1999/xlink" xmlns:svgjs="http://svgjs.com/svgjs"><defs id="SvgjsDefs1002"></defs><g id="SvgjsG1008" transform="matrix(1,0,0,1,0,0)"><svg xmlns="http://www.w3.org/2000/svg" enable-background="new 0 0 64 64" viewBox="0 0 64 64" width="288" height="288"><path d="M60.08,41.14c-0.09,0-0.18-0.01-0.27-0.04c-0.51-0.15-0.81-0.69-0.66-1.2c0.73-2.49,1.1-5.1,1.1-7.76
			c0-2.55-0.34-5.08-1.03-7.5c-0.14-0.52,0.16-1.05,0.67-1.2c0.52-0.14,1.05,0.16,1.2,0.67c0.73,2.59,1.1,5.29,1.1,8.02
			c0,2.85-0.39,5.64-1.17,8.31C60.89,40.87,60.5,41.14,60.08,41.14z M3.92,41.13c-0.42,0-0.81-0.28-0.93-0.7
			c-0.78-2.67-1.17-5.46-1.17-8.3c0-2.73,0.37-5.43,1.1-8.02c0.15-0.52,0.68-0.81,1.2-0.67c0.52,0.14,0.82,0.68,0.67,1.2
			c-0.68,2.42-1.02,4.94-1.02,7.5c0,2.65,0.37,5.26,1.1,7.75C5,40.4,4.71,40.94,4.2,41.09C4.11,41.12,4.01,41.13,3.92,41.13z
			 M7.15,39.81c-0.43,0-0.82-0.28-0.93-0.71c-0.62-2.23-0.93-4.57-0.93-6.96c0-2.35,0.31-4.7,0.93-6.99
			c0.14-0.52,0.67-0.82,1.19-0.69c0.52,0.14,0.82,0.67,0.69,1.19c-0.57,2.13-0.86,4.31-0.86,6.49c0,2.21,0.29,4.38,0.86,6.44
			c0.14,0.52-0.16,1.05-0.68,1.19C7.32,39.8,7.23,39.81,7.15,39.81z M56.86,39.81c-0.08,0-0.17-0.01-0.25-0.03
			c-0.52-0.14-0.82-0.67-0.68-1.19c0.56-2.08,0.85-4.25,0.85-6.45c0-2.19-0.29-4.38-0.87-6.49c-0.14-0.52,0.16-1.05,0.68-1.19
			c0.52-0.14,1.05,0.16,1.19,0.68c0.62,2.28,0.94,4.63,0.94,7c0,2.37-0.31,4.71-0.92,6.95C57.67,39.52,57.28,39.81,56.86,39.81z" fill="#27ae60" class="color000 svgShape"></path><path d="M57.84 26.55c-1.59 0-3.02-1-3.56-2.49C50.89 14.73 41.93 8.46 32 8.46c-9.93 0-18.88 6.27-22.28 15.6-.71 1.96-2.89 2.98-4.85 2.26-1.96-.71-2.98-2.89-2.26-4.85C7.08 9.15 18.9.88 32 .88c13.1 0 24.92 8.27 29.4 20.59l0 0c.35.95.3 1.98-.13 2.9-.43.92-1.19 1.61-2.14 1.96C58.72 26.48 58.28 26.55 57.84 26.55zM32 6.52c10.74 0 20.43 6.78 24.1 16.88.34.93 1.42 1.45 2.37 1.1.46-.17.83-.51 1.04-.96.21-.45.23-.95.06-1.41l0 0C55.37 10.58 44.29 2.82 32 2.82c-12.29 0-23.37 7.76-27.58 19.31-.35.96.15 2.02 1.11 2.37.96.35 2.02-.15 2.37-1.11C11.57 13.3 21.26 6.52 32 6.52zM51.92 63.12c-.33 0-.65-.06-.97-.17l-4.49-1.66c-.7-.26-1.25-.77-1.56-1.45-.31-.68-.34-1.43-.08-2.13l6.97-18.81c.26-.7.77-1.25 1.45-1.56.68-.31 1.43-.34 2.13-.08l4.49 1.66c.7.26 1.25.77 1.56 1.45.31.68.34 1.43.08 2.13L54.53 61.3c-.26.7-.77 1.25-1.45 1.56C52.71 63.03 52.32 63.12 51.92 63.12zM54.4 39.02c-.12 0-.24.03-.35.08-.2.09-.36.26-.44.47l-6.97 18.81c-.08.21-.07.44.02.64.09.2.26.36.47.44l4.49 1.66 0 0c.21.08.44.07.64-.02.2-.09.36-.26.44-.47l6.97-18.81c.08-.21.07-.44-.02-.64-.09-.2-.26-.36-.47-.44l-4.49-1.66C54.59 39.04 54.49 39.02 54.4 39.02z" fill="#27ae60" class="color000 svgShape"></path><path d="M53.91 61.16c-.49 0-.91-.37-.96-.86-.06-.53.32-1.01.86-1.07l2.75-.31c.82-.09 1.51-.63 1.8-1.41l3.57-9.64c.29-.78.12-1.64-.45-2.24l-1.89-2.02c-.37-.39-.34-1.01.05-1.37.39-.36 1-.34 1.37.05l1.89 2.02c1.07 1.15 1.39 2.77.85 4.24l-3.57 9.64c-.54 1.47-1.85 2.49-3.41 2.66l-2.75.31C53.98 61.15 53.94 61.16 53.91 61.16zM49.89 62.49c-.11 0-.23-.02-.34-.06-.5-.19-.76-.74-.57-1.25l8.22-22.21c.19-.5.74-.76 1.25-.57.5.19.76.74.57 1.25L50.8 61.85C50.65 62.24 50.28 62.49 49.89 62.49zM12.08 63.12c-.4 0-.79-.09-1.16-.26C10.24 62.55 9.73 62 9.47 61.3L2.51 42.49c-.26-.7-.23-1.45.08-2.13.31-.68.86-1.19 1.56-1.45l4.49-1.66c.7-.26 1.45-.23 2.13.08.68.31 1.19.86 1.45 1.56l6.97 18.81c.26.7.23 1.45-.08 2.13-.31.68-.87 1.19-1.56 1.45l-4.49 1.66C12.73 63.06 12.4 63.12 12.08 63.12zM9.6 39.02c-.1 0-.2.02-.29.05l-4.49 1.66c-.21.08-.38.23-.47.44-.09.2-.1.43-.02.64l6.97 18.81c.08.21.23.38.44.47.2.09.43.1.64.02l0 0 4.49-1.66c.21-.08.38-.23.47-.44.09-.2.1-.43.02-.64l-6.97-18.81c-.08-.21-.23-.38-.44-.47C9.84 39.05 9.72 39.02 9.6 39.02z" fill="#27ae60" class="color000 svgShape"></path><path d="M10.09 61.16c-.04 0-.07 0-.11-.01l-2.75-.31c-1.56-.17-2.86-1.19-3.41-2.66l-3.57-9.64c-.54-1.47-.22-3.09.85-4.24l1.89-2.02c.37-.39.98-.41 1.37-.05.39.37.41.98.05 1.37l-1.89 2.02c-.56.61-.74 1.47-.45 2.24l3.57 9.64c.29.78.98 1.32 1.8 1.41l2.75.31c.53.06.92.54.86 1.07C11 60.79 10.58 61.16 10.09 61.16zM14.11 62.49c-.39 0-.76-.24-.91-.63L4.98 39.64c-.19-.5.07-1.06.57-1.25.5-.18 1.06.07 1.25.57l8.22 22.21c.19.5-.07 1.06-.57 1.25C14.34 62.47 14.22 62.49 14.11 62.49z" fill="#27ae60" class="color000 svgShape"></path></svg></g></svg>