<svg
            width="14"
            height="14"
            viewBox="0 0 14 14"
            fill="none"
            xmlns="http://www.w3.org/2000/svg"
          >
            <path
              fill-rule="evenodd"
              clip-rule="evenodd"
              d="M5.29651 2.33317C5.29651 2.03671 5.53683 1.79639 5.83329 1.79639H11.0833C11.3797 1.79639 11.6201 2.03671 11.6201 2.33317C11.6201 2.62962 11.3797 2.86995 11.0833 2.86995H5.83329C5.53683 2.86995 5.29651 2.62962 5.29651 2.33317Z"
              fill="#616061"
            />
            <path
              fill-rule="evenodd"
              clip-rule="evenodd"
              d="M2.37976 11.6667C2.37976 11.3702 2.62009 11.1299 2.91654 11.1299H8.16654C8.463 11.1299 8.70332 11.3702 8.70332 11.6667C8.70332 11.9631 8.463 12.2034 8.16654 12.2034H2.91654C2.62009 12.2034 2.37976 11.9631 2.37976 11.6667Z"
              fill="#616061"
            />
            <path
              fill-rule="evenodd"
              clip-rule="evenodd"
              d="M8.93829 1.83071C9.21587 1.9348 9.35651 2.24421 9.25242 2.52179L5.75242 11.8551C5.64833 12.1327 5.33892 12.2733 5.06134 12.1692C4.78376 12.0652 4.64312 11.7557 4.74721 11.4782L8.24721 2.14484C8.35131 1.86726 8.66071 1.72662 8.93829 1.83071Z"
              fill="#616061"
            />
          </svg>