<svg width="18" height="16" viewBox="0 0 18 16" fill="none" xmlns="http://www.w3.org/2000/svg">
<path d="M10.95 5.99981H15.75C16.1478 5.99981 16.5294 6.15784 16.8107 6.43915C17.092 6.72045 17.25 7.10198 17.25 7.49981V9.07781C17.2502 9.27383 17.212 9.46799 17.1375 9.64931L14.8162 15.2856C14.7596 15.423 14.6634 15.5405 14.5399 15.6231C14.4164 15.7058 14.2711 15.7499 14.1225 15.7498H1.5C1.30109 15.7498 1.11032 15.6708 0.96967 15.5301C0.829018 15.3895 0.75 15.1987 0.75 14.9998V7.49981C0.75 7.30089 0.829018 7.11013 0.96967 6.96948C1.11032 6.82882 1.30109 6.74981 1.5 6.74981H4.1115C4.23157 6.74984 4.3499 6.72104 4.45653 6.66583C4.56315 6.61062 4.65497 6.53062 4.72425 6.43256L8.814 0.637306C8.8657 0.56404 8.94194 0.511726 9.0289 0.489848C9.11586 0.467971 9.20778 0.477978 9.288 0.518056L10.6485 1.19831C11.0314 1.38968 11.3372 1.70629 11.5153 2.09554C11.6933 2.48479 11.7329 2.92325 11.6273 3.33806L10.95 5.99981ZM5.25 7.94081V14.2498H13.62L15.75 9.07781V7.49981H10.95C10.7215 7.49977 10.4961 7.44756 10.2909 7.34715C10.0857 7.24674 9.90617 7.10078 9.76596 6.92042C9.62575 6.74006 9.52859 6.53005 9.48189 6.30642C9.43519 6.0828 9.44019 5.85146 9.4965 5.63006L10.1737 2.96906C10.1949 2.88605 10.1871 2.79829 10.1515 2.72038C10.1159 2.64246 10.0546 2.57909 9.978 2.54081L9.48225 2.29331L5.94975 7.29731C5.76225 7.56281 5.52225 7.78031 5.25 7.94081ZM3.75 8.24981H2.25V14.2498H3.75V8.24981Z" fill="#00B87C"/>
</svg>
