<svg width="18" height="16" viewBox="0 0 18 16" fill="none" xmlns="http://www.w3.org/2000/svg">
<path d="M1.5 6.75008H3.75V15.7501H1.5C1.30109 15.7501 1.11032 15.6711 0.96967 15.5304C0.829018 15.3898 0.75 15.199 0.75 15.0001V7.50008C0.75 7.30117 0.829018 7.11041 0.96967 6.96975C1.11032 6.8291 1.30109 6.75008 1.5 6.75008ZM5.46975 5.78033L10.2697 0.980334C10.3335 0.916354 10.4183 0.877559 10.5084 0.871082C10.5985 0.864606 10.688 0.890884 10.7603 0.945084L11.4 1.42508C11.5777 1.55847 11.7119 1.74147 11.7857 1.95103C11.8595 2.16058 11.8696 2.38729 11.8148 2.60258L10.95 6.00008H15.75C16.1478 6.00008 16.5294 6.15812 16.8107 6.43942C17.092 6.72073 17.25 7.10226 17.25 7.50008V9.07808C17.2502 9.27411 17.212 9.46826 17.1375 9.64958L14.8162 15.2858C14.7596 15.4232 14.6634 15.5407 14.5399 15.6234C14.4164 15.7061 14.2711 15.7501 14.1225 15.7501H6C5.80109 15.7501 5.61032 15.6711 5.46967 15.5304C5.32902 15.3898 5.25 15.199 5.25 15.0001V6.31058C5.25004 6.11169 5.32909 5.92095 5.46975 5.78033Z" fill="#00B87C"/>
</svg>
