<svg width="32" height="32" viewBox="0 0 32 32" fill="none" xmlns="http://www.w3.org/2000/svg">
<path fill-rule="evenodd" clip-rule="evenodd" d="M5.54934 16.9989C5.42941 17.1835 5.33326 17.4475 5.33326 17.8547V20.7406C5.33326 21.6836 5.70787 22.588 6.37466 23.2548C6.75322 23.6333 7.20834 23.9177 7.70364 24.0928V16.0646C7.09266 16.1373 6.56879 16.2725 6.17039 16.4769C5.86894 16.6314 5.67312 16.8084 5.54934 16.9989ZM5.08873 14.3677C6.22914 13.7828 7.64101 13.6295 8.88882 13.6295C9.54338 13.6295 10.074 14.1601 10.074 14.8147V25.4814C10.074 26.1359 9.54338 26.6666 8.88882 26.6666C7.31717 26.6666 5.80988 26.0422 4.69856 24.9309C3.58723 23.8196 2.96289 22.3123 2.96289 20.7406V17.8547C2.96289 17.0453 3.16304 16.321 3.56163 15.7075C3.95637 15.0999 4.50129 14.6689 5.08873 14.3677Z" fill="#1D1C1D"/>
<path fill-rule="evenodd" clip-rule="evenodd" d="M21.9255 14.8147C21.9255 14.1601 22.4562 13.6295 23.1107 13.6295C24.3585 13.6295 25.7704 13.7828 26.9108 14.3677C27.4983 14.6689 28.0432 15.0999 28.4379 15.7075C28.8365 16.321 29.0366 17.0453 29.0366 17.8547V20.7406C29.0366 22.3123 28.4123 23.8196 27.301 24.9309C26.1897 26.0422 24.6824 26.6666 23.1107 26.6666C22.4562 26.6666 21.9255 26.1359 21.9255 25.4814V14.8147ZM24.2959 16.0646V24.0928C24.7912 23.9177 25.2463 23.6333 25.6249 23.2548C26.2917 22.588 26.6663 21.6836 26.6663 20.7406V17.8547C26.6663 17.4475 26.5701 17.1835 26.4502 16.9989C26.3264 16.8084 26.1306 16.6314 25.8291 16.4769C25.4308 16.2725 24.9069 16.1373 24.2959 16.0646Z" fill="#1D1C1D"/>
<path fill-rule="evenodd" clip-rule="evenodd" d="M15.9997 7.70362C14.428 7.70362 12.9207 8.32796 11.8094 9.43929C10.6981 10.5506 10.0737 12.0579 10.0737 13.6295V25.4814C10.0737 26.136 9.54311 26.6666 8.88855 26.6666C8.23399 26.6666 7.70337 26.136 7.70337 25.4814V13.6295C7.70337 11.4292 8.57744 9.31904 10.1333 7.76318C11.6892 6.20732 13.7994 5.33325 15.9997 5.33325C18.2 5.33325 20.3102 6.20732 21.866 7.76318C23.4219 9.31904 24.296 11.4292 24.296 13.6295V25.4814C24.296 26.136 23.7653 26.6666 23.1108 26.6666C22.4562 26.6666 21.9256 26.136 21.9256 25.4814V13.6295C21.9256 12.0579 21.3013 10.5506 20.1899 9.43929C19.0786 8.32796 17.5713 7.70362 15.9997 7.70362Z" fill="#1D1C1D"/>
</svg>
