<svg width="20" height="21" viewBox="0 0 20 21" fill="none" xmlns="http://www.w3.org/2000/svg">
<path fill-rule="evenodd" clip-rule="evenodd" d="M8.81133 3.75024C10.9661 3.75024 12.9911 4.58799 14.5121 6.10974C17.6561 9.25374 17.6561 14.3687 14.5121 17.5127C12.9708 19.0547 10.8956 19.8707 8.79333 19.8707C7.64733 19.8707 6.49383 19.6285 5.41458 19.129C5.09658 19.0015 4.79883 18.8815 4.58508 18.8815C4.33908 18.883 4.00833 18.997 3.68883 19.1072C3.03333 19.3322 2.21733 19.6127 1.61358 19.0112C1.01208 18.409 1.28958 17.5952 1.51308 16.9405C1.62333 16.618 1.73658 16.285 1.73658 16.033C1.73658 15.826 1.63683 15.562 1.48383 15.1817C0.0790778 12.148 0.728578 8.49174 3.11133 6.11049C4.63233 4.58874 6.65658 3.75024 8.81133 3.75024ZM8.81208 4.87524C6.95733 4.87524 5.21508 5.59674 3.90633 6.90624C1.85583 8.95524 1.29783 12.1015 2.51658 14.7362C2.69208 15.1705 2.86158 15.5935 2.86158 16.033C2.86158 16.4717 2.71083 16.9135 2.57808 17.3035C2.46858 17.6245 2.30283 18.109 2.40933 18.2155C2.51358 18.3235 3.00108 18.1532 3.32283 18.043C3.70908 17.911 4.14708 17.7595 4.58133 17.7565C5.01633 17.7565 5.42658 17.9215 5.86083 18.0962C8.52108 19.3262 11.6673 18.7667 13.7171 16.7177C16.4216 14.0117 16.4216 9.60999 13.7171 6.90549C12.4076 5.59599 10.6661 4.87524 8.81208 4.87524ZM11.7723 11.3723C12.1863 11.3723 12.5223 11.7075 12.5223 12.1223C12.5223 12.537 12.1863 12.8723 11.7723 12.8723C11.3583 12.8723 11.0193 12.537 11.0193 12.1223C11.0193 11.7075 11.3515 11.3723 11.7655 11.3723H11.7723ZM8.76565 11.3723C9.17965 11.3723 9.51565 11.7075 9.51565 12.1223C9.51565 12.537 9.17965 12.8723 8.76565 12.8723C8.35165 12.8723 8.01265 12.537 8.01265 12.1223C8.01265 11.7075 8.34415 11.3723 8.7589 11.3723H8.76565ZM5.75875 11.3723C6.17275 11.3723 6.50875 11.7075 6.50875 12.1223C6.50875 12.537 6.17275 12.8723 5.75875 12.8723C5.34475 12.8723 5.00575 12.537 5.00575 12.1223C5.00575 11.7075 5.338 11.3723 5.752 11.3723H5.75875Z" fill="white"/>
<circle cx="14" cy="6" r="6" fill="#B8003C"/>
<circle cx="17.6" cy="6.00005" r="1.2" fill="white"/>
<circle cx="14" cy="6.00005" r="1.2" fill="white"/>
<circle cx="10.4" cy="6.00005" r="1.2" fill="white"/>
</svg>
