<svg width="18" height="18" viewBox="0 0 18 18" fill="none" xmlns="http://www.w3.org/2000/svg">
<path fill-rule="evenodd" clip-rule="evenodd" d="M3.12162 9.56178C3.05416 9.66561 3.00008 9.81414 3.00008 10.0432V11.6665C3.00008 12.1969 3.2108 12.7056 3.58587 13.0807C3.7988 13.2937 4.05481 13.4536 4.33341 13.5521V9.03623C3.98974 9.07713 3.69506 9.1532 3.47097 9.26813C3.3014 9.35509 3.19125 9.45461 3.12162 9.56178ZM2.86253 8.08171C3.50401 7.75274 4.29819 7.6665 5.00008 7.6665C5.36827 7.6665 5.66675 7.96498 5.66675 8.33317V14.3332C5.66675 14.7014 5.36827 14.9998 5.00008 14.9998C4.11603 14.9998 3.26818 14.6486 2.64306 14.0235C2.01794 13.3984 1.66675 12.5506 1.66675 11.6665V10.0432C1.66675 9.58786 1.77933 9.18048 2.00354 8.83538C2.22558 8.49361 2.5321 8.25117 2.86253 8.08171Z" fill="white"/>
<path fill-rule="evenodd" clip-rule="evenodd" d="M12.3333 8.33317C12.3333 7.96498 12.6317 7.6665 12.9999 7.6665C13.7018 7.6665 14.496 7.75274 15.1375 8.08171C15.4679 8.25117 15.7744 8.49361 15.9965 8.83538C16.2207 9.18048 16.3333 9.58786 16.3333 10.0432V11.6665C16.3333 12.5506 15.9821 13.3984 15.3569 14.0235C14.7318 14.6486 13.884 14.9998 12.9999 14.9998C12.6317 14.9998 12.3333 14.7014 12.3333 14.3332V8.33317ZM13.6666 9.03623V13.5521C13.9452 13.4536 14.2012 13.2937 14.4141 13.0807C14.7892 12.7056 14.9999 12.1969 14.9999 11.6665V10.0432C14.9999 9.81414 14.9458 9.66561 14.8784 9.56178C14.8087 9.45461 14.6986 9.35509 14.529 9.26813C14.3049 9.1532 14.0103 9.07713 13.6666 9.03623Z" fill="white"/>
<path fill-rule="evenodd" clip-rule="evenodd" d="M8.99992 4.33333C8.11586 4.33333 7.26802 4.68452 6.6429 5.30964C6.01777 5.93477 5.66659 6.78261 5.66659 7.66667V14.3333C5.66659 14.7015 5.36811 15 4.99992 15C4.63173 15 4.33325 14.7015 4.33325 14.3333V7.66667C4.33325 6.42899 4.82492 5.242 5.70009 4.36684C6.57526 3.49167 7.76224 3 8.99992 3C10.2376 3 11.4246 3.49167 12.2998 4.36684C13.1749 5.24201 13.6666 6.42899 13.6666 7.66667V14.3333C13.6666 14.7015 13.3681 15 12.9999 15C12.6317 15 12.3333 14.7015 12.3333 14.3333V7.66667C12.3333 6.78261 11.9821 5.93477 11.3569 5.30964C10.7318 4.68452 9.88397 4.33333 8.99992 4.33333Z" fill="white"/>
</svg>
