<svg width="50" height="80" viewBox="0 0 10 3" fill="none" xmlns="http://www.w3.org/2000/svg">
<path fill-rule="evenodd" clip-rule="evenodd" d="M8.05791 2.56872C7.77759 2.56872 7.50876 2.45737 7.31054 2.25915C7.11233 2.06094 7.00097 1.7921 7.00097 1.51178C7.00097 1.23146 7.11233 0.962622 7.31054 0.764406C7.50876 0.566191 7.77759 0.454834 8.05791 0.454834C8.33823 0.454834 8.60707 0.566191 8.80529 0.764406C9.0035 0.962622 9.11486 1.23146 9.11486 1.51178C9.11486 1.7921 9.0035 2.06094 8.80529 2.25915C8.60707 2.45737 8.33823 2.56872 8.05791 2.56872ZM1.71625 2.56872C1.43593 2.56872 1.16709 2.45737 0.968874 2.25915C0.770658 2.06094 0.659302 1.7921 0.659302 1.51178C0.659302 1.23146 0.770658 0.962622 0.968874 0.764406C1.16709 0.566191 1.43593 0.454834 1.71625 0.454834C1.99657 0.454834 2.2654 0.566191 2.46362 0.764406C2.66183 0.962622 2.77319 1.23146 2.77319 1.51178C2.77319 1.7921 2.66183 2.06094 2.46362 2.25915C2.2654 2.45737 1.99657 2.56872 1.71625 2.56872ZM4.88708 2.56872C4.60676 2.56872 4.33792 2.45737 4.13971 2.25915C3.94149 2.06094 3.83014 1.7921 3.83014 1.51178C3.83014 1.23146 3.94149 0.962622 4.13971 0.764406C4.33792 0.566191 4.60676 0.454834 4.88708 0.454834C5.1674 0.454834 5.43624 0.566191 5.63445 0.764406C5.83267 0.962622 5.94402 1.23146 5.94402 1.51178C5.94402 1.7921 5.83267 2.06094 5.63445 2.25915C5.43624 2.45737 5.1674 2.56872 4.88708 2.56872Z" fill="#333333"/>
</svg>
