<svg width="18" height="19" viewBox="0 0 18 19" fill="none" xmlns="http://www.w3.org/2000/svg">
<path d="M7.71597 6.21027H14.821C14.9659 6.21027 15.105 6.15268 15.2075 6.05019C15.31 5.94769 15.3675 5.80868 15.3675 5.66373C15.3675 5.51878 15.31 5.37976 15.2075 5.27727C15.105 5.17477 14.9659 5.11719 14.821 5.11719H7.71597C7.57102 5.11719 7.43201 5.17477 7.32951 5.27727C7.22702 5.37976 7.16943 5.51878 7.16943 5.66373C7.16943 5.80868 7.22702 5.94769 7.32951 6.05019C7.43201 6.15268 7.57102 6.21027 7.71597 6.21027Z" fill="#1D1C1D"/>
<path d="M14.821 8.94238H7.71597C7.57102 8.94238 7.43201 8.99996 7.32951 9.10246C7.22702 9.20496 7.16943 9.34397 7.16943 9.48893C7.16943 9.63388 7.22702 9.77289 7.32951 9.87539C7.43201 9.97789 7.57102 10.0355 7.71597 10.0355H14.821C14.9659 10.0355 15.105 9.97789 15.2075 9.87539C15.31 9.77289 15.3675 9.63388 15.3675 9.48893C15.3675 9.34397 15.31 9.20496 15.2075 9.10246C15.105 8.99996 14.9659 8.94238 14.821 8.94238Z" fill="#1D1C1D"/>
<path d="M14.821 12.7686H7.71597C7.57102 12.7686 7.43201 12.8261 7.32951 12.9286C7.22702 13.0311 7.16943 13.1701 7.16943 13.3151C7.16943 13.4601 7.22702 13.5991 7.32951 13.7016C7.43201 13.8041 7.57102 13.8616 7.71597 13.8616H14.821C14.9659 13.8616 15.105 13.8041 15.2075 13.7016C15.31 13.5991 15.3675 13.4601 15.3675 13.3151C15.3675 13.1701 15.31 13.0311 15.2075 12.9286C15.105 12.8261 14.9659 12.7686 14.821 12.7686Z" fill="#1D1C1D"/>
<path d="M5.57728 6.20978C5.63135 6.20977 5.68421 6.19371 5.72915 6.16365C5.7741 6.13359 5.80911 6.09087 5.82977 6.0409C5.85042 5.99092 5.85579 5.93595 5.84519 5.88293C5.83459 5.8299 5.80849 5.78122 5.77021 5.74303L4.43665 4.41002C4.33416 4.30756 4.19517 4.25 4.05025 4.25C3.90532 4.25 3.76633 4.30756 3.66384 4.41002L2.33083 5.74303C2.29255 5.78122 2.26645 5.8299 2.25585 5.88293C2.24525 5.93595 2.25062 5.99092 2.27127 6.0409C2.29193 6.09087 2.32694 6.13359 2.37189 6.16365C2.41683 6.19371 2.46969 6.20977 2.52376 6.20978H3.50425V12.7683H2.52376C2.46964 12.7682 2.41671 12.7841 2.37168 12.8142C2.32665 12.8442 2.29155 12.8869 2.27083 12.9369C2.25011 12.9869 2.24469 13.0419 2.25528 13.095C2.26586 13.1481 2.29197 13.1968 2.33028 13.235L3.66384 14.568C3.76633 14.6705 3.90532 14.728 4.05025 14.728C4.19517 14.728 4.33416 14.6705 4.43665 14.568L5.77021 13.235C5.80849 13.1968 5.83459 13.1481 5.84519 13.0951C5.85579 13.0421 5.85042 12.9871 5.82977 12.9371C5.80911 12.8872 5.7741 12.8444 5.72915 12.8144C5.68421 12.7843 5.63135 12.7683 5.57728 12.7683H4.59733V6.20978H5.57728Z" fill="#1D1C1D"/>
</svg>
